STARTFONT 2.1
FONT -URW-ITC Bookman-Light-I-Normal--8-80-72-72-P-45-ISO8859-1
SIZE 8 72 72
FONTBOUNDINGBOX 15 10 -4 -2

STARTPROPERTIES 22
FONTNAME_REGISTRY "-"
FOUNDRY "URW"
FAMILY_NAME "ITC Bookman"
WEIGHT_NAME "Light"
SLANT "I"
SETWIDTH_NAME "Normal"
ADD_STYLE_NAME ""
PIXEL_SIZE 8
POINT_SIZE 80
RESOLUTION_X 72
RESOLUTION_Y 72
SPACING "P"
CHARSET_REGISTRY "ISO8859"
CHARSET_ENCODING "1"
FULL_NAME "Bookman-LightItalic"
AVERAGE_WIDTH 45
WEIGHT 10
X_HEIGHT 4
QUAD_WIDTH 6
DEFAULT_CHAR 32
FONT_DESCENT 1
FONT_ASCENT 7
ENDPROPERTIES

CHARS 190

STARTCHAR space
ENCODING 32
SWIDTH 300 0
DWIDTH 2 0
BBX 1 1 0 0
BITMAP
00
ENDCHAR

STARTCHAR exclam
ENCODING 33
SWIDTH 320 0
DWIDTH 3 0
BBX 2 6 1 0
BITMAP
40
40
40
40
00
80
ENDCHAR

STARTCHAR quotedbl
ENCODING 34
SWIDTH 360 0
DWIDTH 3 0
BBX 2 2 1 4
BITMAP
C0
C0
ENDCHAR

STARTCHAR numbersign
ENCODING 35
SWIDTH 620 0
DWIDTH 5 0
BBX 4 6 1 0
BITMAP
50
50
F0
F0
A0
A0
ENDCHAR

STARTCHAR dollar
ENCODING 36
SWIDTH 620 0
DWIDTH 5 0
BBX 4 8 1 -1
BITMAP
10
70
F0
70
50
D0
E0
40
ENDCHAR

STARTCHAR percent
ENCODING 37
SWIDTH 800 0
DWIDTH 6 0
BBX 6 6 0 0
BITMAP
68
B0
BC
F4
34
58
ENDCHAR

STARTCHAR ampersand
ENCODING 38
SWIDTH 820 0
DWIDTH 7 0
BBX 6 6 1 0
BITMAP
30
50
E8
D8
9C
EC
ENDCHAR

STARTCHAR quoteright
ENCODING 39
SWIDTH 280 0
DWIDTH 2 0
BBX 1 2 1 4
BITMAP
80
80
ENDCHAR

STARTCHAR parenleft
ENCODING 40
SWIDTH 280 0
DWIDTH 2 0
BBX 2 7 1 -1
BITMAP
40
C0
80
80
80
80
80
ENDCHAR

STARTCHAR parenright
ENCODING 41
SWIDTH 280 0
DWIDTH 2 0
BBX 2 7 0 -1
BITMAP
40
40
40
40
40
40
80
ENDCHAR

STARTCHAR asterisk
ENCODING 42
SWIDTH 440 0
DWIDTH 4 0
BBX 3 3 1 3
BITMAP
C0
E0
E0
ENDCHAR

STARTCHAR plus
ENCODING 43
SWIDTH 600 0
DWIDTH 5 0
BBX 5 5 0 1
BITMAP
20
20
F8
20
20
ENDCHAR

STARTCHAR comma
ENCODING 44
SWIDTH 300 0
DWIDTH 2 0
BBX 1 2 1 -1
BITMAP
80
80
ENDCHAR

STARTCHAR minus
ENCODING 45
SWIDTH 600 0
DWIDTH 5 0
BBX 4 1 1 2
BITMAP
F0
ENDCHAR

STARTCHAR period
ENCODING 46
SWIDTH 300 0
DWIDTH 2 0
BBX 1 1 1 0
BITMAP
80
ENDCHAR

STARTCHAR slash
ENCODING 47
SWIDTH 600 0
DWIDTH 5 0
BBX 4 7 1 -1
BITMAP
10
20
20
40
40
C0
80
ENDCHAR

STARTCHAR zero
ENCODING 48
SWIDTH 620 0
DWIDTH 5 0
BBX 4 6 1 0
BITMAP
70
50
90
90
90
60
ENDCHAR

STARTCHAR one
ENCODING 49
SWIDTH 620 0
DWIDTH 5 0
BBX 3 6 1 0
BITMAP
60
40
40
40
40
E0
ENDCHAR

STARTCHAR two
ENCODING 50
SWIDTH 620 0
DWIDTH 5 0
BBX 5 6 1 0
BITMAP
70
48
50
30
60
F8
ENDCHAR

STARTCHAR three
ENCODING 51
SWIDTH 620 0
DWIDTH 5 0
BBX 5 6 0 0
BITMAP
70
48
30
10
90
E0
ENDCHAR

STARTCHAR four
ENCODING 52
SWIDTH 620 0
DWIDTH 5 0
BBX 5 6 1 0
BITMAP
10
30
50
D0
F8
30
ENDCHAR

STARTCHAR five
ENCODING 53
SWIDTH 620 0
DWIDTH 5 0
BBX 4 6 1 0
BITMAP
70
40
F0
10
10
E0
ENDCHAR

STARTCHAR six
ENCODING 54
SWIDTH 620 0
DWIDTH 5 0
BBX 5 6 1 0
BITMAP
38
40
F0
90
90
60
ENDCHAR

STARTCHAR seven
ENCODING 55
SWIDTH 620 0
DWIDTH 5 0
BBX 4 6 1 0
BITMAP
F0
B0
20
40
40
80
ENDCHAR

STARTCHAR eight
ENCODING 56
SWIDTH 620 0
DWIDTH 5 0
BBX 5 6 0 0
BITMAP
70
48
70
D0
90
F0
ENDCHAR

STARTCHAR nine
ENCODING 57
SWIDTH 620 0
DWIDTH 5 0
BBX 5 6 1 0
BITMAP
70
88
98
70
10
E0
ENDCHAR

STARTCHAR colon
ENCODING 58
SWIDTH 300 0
DWIDTH 2 0
BBX 2 4 1 0
BITMAP
40
00
00
80
ENDCHAR

STARTCHAR semicolon
ENCODING 59
SWIDTH 300 0
DWIDTH 2 0
BBX 2 5 1 -1
BITMAP
40
00
00
80
80
ENDCHAR

STARTCHAR less
ENCODING 60
SWIDTH 600 0
DWIDTH 5 0
BBX 4 4 1 0
BITMAP
30
E0
E0
30
ENDCHAR

STARTCHAR equal
ENCODING 61
SWIDTH 600 0
DWIDTH 5 0
BBX 4 2 1 2
BITMAP
F0
F0
ENDCHAR

STARTCHAR greater
ENCODING 62
SWIDTH 600 0
DWIDTH 5 0
BBX 4 4 1 0
BITMAP
C0
30
30
C0
ENDCHAR

STARTCHAR question
ENCODING 63
SWIDTH 540 0
DWIDTH 4 0
BBX 4 6 1 0
BITMAP
70
90
10
60
00
C0
ENDCHAR

STARTCHAR at
ENCODING 64
SWIDTH 780 0
DWIDTH 6 0
BBX 6 6 1 0
BITMAP
78
B4
D4
D4
FC
78
ENDCHAR

STARTCHAR A
ENCODING 65
SWIDTH 700 0
DWIDTH 6 0
BBX 6 6 0 0
BITMAP
18
38
28
78
48
CC
ENDCHAR

STARTCHAR B
ENCODING 66
SWIDTH 720 0
DWIDTH 6 0
BBX 6 6 0 0
BITMAP
7C
44
78
4C
4C
F8
ENDCHAR

STARTCHAR C
ENCODING 67
SWIDTH 720 0
DWIDTH 6 0
BBX 5 6 1 0
BITMAP
38
48
88
80
88
70
ENDCHAR

STARTCHAR D
ENCODING 68
SWIDTH 740 0
DWIDTH 6 0
BBX 6 6 0 0
BITMAP
78
44
44
44
4C
F8
ENDCHAR

STARTCHAR E
ENCODING 69
SWIDTH 680 0
DWIDTH 5 0
BBX 6 6 0 0
BITMAP
7C
24
70
48
48
F8
ENDCHAR

STARTCHAR F
ENCODING 70
SWIDTH 620 0
DWIDTH 5 0
BBX 6 6 0 0
BITMAP
7C
24
70
40
40
C0
ENDCHAR

STARTCHAR G
ENCODING 71
SWIDTH 760 0
DWIDTH 6 0
BBX 6 6 1 0
BITMAP
38
48
80
8C
88
78
ENDCHAR

STARTCHAR H
ENCODING 72
SWIDTH 800 0
DWIDTH 6 0
BBX 7 6 0 0
BITMAP
66
24
7C
44
44
CC
ENDCHAR

STARTCHAR I
ENCODING 73
SWIDTH 320 0
DWIDTH 3 0
BBX 3 6 0 0
BITMAP
60
40
40
40
40
C0
ENDCHAR

STARTCHAR J
ENCODING 74
SWIDTH 560 0
DWIDTH 4 0
BBX 5 6 0 0
BITMAP
18
10
10
90
90
E0
ENDCHAR

STARTCHAR K
ENCODING 75
SWIDTH 720 0
DWIDTH 6 0
BBX 6 6 0 0
BITMAP
6C
48
70
70
48
CC
ENDCHAR

STARTCHAR L
ENCODING 76
SWIDTH 580 0
DWIDTH 5 0
BBX 5 6 0 0
BITMAP
60
40
40
40
48
F8
ENDCHAR

STARTCHAR M
ENCODING 77
SWIDTH 860 0
DWIDTH 7 0
BBX 8 6 0 0
BITMAP
67
26
6C
6C
54
DE
ENDCHAR

STARTCHAR N
ENCODING 78
SWIDTH 720 0
DWIDTH 6 0
BBX 6 6 0 0
BITMAP
64
64
54
54
48
C8
ENDCHAR

STARTCHAR O
ENCODING 79
SWIDTH 760 0
DWIDTH 6 0
BBX 6 6 1 0
BITMAP
38
44
84
84
88
70
ENDCHAR

STARTCHAR P
ENCODING 80
SWIDTH 600 0
DWIDTH 5 0
BBX 5 6 0 0
BITMAP
78
48
48
78
40
C0
ENDCHAR

STARTCHAR Q
ENCODING 81
SWIDTH 780 0
DWIDTH 6 0
BBX 6 8 0 -2
BITMAP
38
44
84
84
B8
F8
88
70
ENDCHAR

STARTCHAR R
ENCODING 82
SWIDTH 700 0
DWIDTH 6 0
BBX 6 6 0 0
BITMAP
78
44
78
50
48
CC
ENDCHAR

STARTCHAR S
ENCODING 83
SWIDTH 640 0
DWIDTH 5 0
BBX 5 6 0 0
BITMAP
78
40
70
18
88
F0
ENDCHAR

STARTCHAR T
ENCODING 84
SWIDTH 600 0
DWIDTH 5 0
BBX 5 6 0 0
BITMAP
78
A8
20
20
20
60
ENDCHAR

STARTCHAR U
ENCODING 85
SWIDTH 720 0
DWIDTH 6 0
BBX 6 6 1 0
BITMAP
CC
88
88
88
88
F0
ENDCHAR

STARTCHAR V
ENCODING 86
SWIDTH 680 0
DWIDTH 5 0
BBX 6 6 1 0
BITMAP
CC
48
48
50
50
20
ENDCHAR

STARTCHAR W
ENCODING 87
SWIDTH 960 0
DWIDTH 8 0
BBX 8 6 1 0
BITMAP
DB
51
5A
7A
6C
4C
ENDCHAR

STARTCHAR X
ENCODING 88
SWIDTH 700 0
DWIDTH 6 0
BBX 7 6 0 0
BITMAP
76
2C
18
38
48
CC
ENDCHAR

STARTCHAR Y
ENCODING 89
SWIDTH 660 0
DWIDTH 5 0
BBX 6 6 1 0
BITMAP
CC
48
50
20
20
60
ENDCHAR

STARTCHAR Z
ENCODING 90
SWIDTH 580 0
DWIDTH 5 0
BBX 6 6 0 0
BITMAP
7C
58
10
20
48
F8
ENDCHAR

STARTCHAR bracketleft
ENCODING 91
SWIDTH 260 0
DWIDTH 2 0
BBX 2 7 0 -1
BITMAP
40
40
80
80
80
80
80
ENDCHAR

STARTCHAR backslash
ENCODING 92
SWIDTH 600 0
DWIDTH 5 0
BBX 4 7 1 -1
BITMAP
80
C0
40
40
20
20
10
ENDCHAR

STARTCHAR bracketright
ENCODING 93
SWIDTH 260 0
DWIDTH 2 0
BBX 2 7 0 -1
BITMAP
40
40
40
40
40
40
80
ENDCHAR

STARTCHAR asciicircum
ENCODING 94
SWIDTH 600 0
DWIDTH 5 0
BBX 4 3 1 3
BITMAP
60
60
90
ENDCHAR

STARTCHAR underscore
ENCODING 95
SWIDTH 500 0
DWIDTH 4 0
BBX 4 1 0 -1
BITMAP
F0
ENDCHAR

STARTCHAR quoteleft
ENCODING 96
SWIDTH 280 0
DWIDTH 2 0
BBX 1 2 2 4
BITMAP
80
80
ENDCHAR

STARTCHAR a
ENCODING 97
SWIDTH 620 0
DWIDTH 5 0
BBX 5 4 1 0
BITMAP
70
90
B0
F8
ENDCHAR

STARTCHAR b
ENCODING 98
SWIDTH 600 0
DWIDTH 5 0
BBX 4 7 1 0
BITMAP
C0
40
40
70
D0
90
E0
ENDCHAR

STARTCHAR c
ENCODING 99
SWIDTH 480 0
DWIDTH 4 0
BBX 4 4 1 0
BITMAP
60
90
90
E0
ENDCHAR

STARTCHAR d
ENCODING 100
SWIDTH 640 0
DWIDTH 5 0
BBX 5 7 1 0
BITMAP
18
10
10
70
90
90
F8
ENDCHAR

STARTCHAR e
ENCODING 101
SWIDTH 540 0
DWIDTH 4 0
BBX 4 4 1 0
BITMAP
70
F0
90
E0
ENDCHAR

STARTCHAR f
ENCODING 102
SWIDTH 340 0
DWIDTH 3 0
BBX 6 9 0 -2
BITMAP
0C
10
10
38
10
20
20
20
E0
ENDCHAR

STARTCHAR g
ENCODING 103
SWIDTH 560 0
DWIDTH 4 0
BBX 5 6 0 -2
BITMAP
78
50
90
70
10
E0
ENDCHAR

STARTCHAR h
ENCODING 104
SWIDTH 620 0
DWIDTH 5 0
BBX 5 7 1 0
BITMAP
C0
40
40
70
D0
90
98
ENDCHAR

STARTCHAR i
ENCODING 105
SWIDTH 280 0
DWIDTH 2 0
BBX 2 7 1 0
BITMAP
40
00
00
80
80
80
C0
ENDCHAR

STARTCHAR j
ENCODING 106
SWIDTH 280 0
DWIDTH 2 0
BBX 4 9 -1 -2
BITMAP
10
00
00
30
10
20
20
20
C0
ENDCHAR

STARTCHAR k
ENCODING 107
SWIDTH 600 0
DWIDTH 5 0
BBX 5 7 1 0
BITMAP
C0
40
80
B8
E0
A0
B0
ENDCHAR

STARTCHAR l
ENCODING 108
SWIDTH 280 0
DWIDTH 2 0
BBX 2 7 1 0
BITMAP
C0
80
80
80
80
80
C0
ENDCHAR

STARTCHAR m
ENCODING 109
SWIDTH 880 0
DWIDTH 7 0
BBX 7 4 1 0
BITMAP
FC
94
94
96
ENDCHAR

STARTCHAR n
ENCODING 110
SWIDTH 620 0
DWIDTH 5 0
BBX 5 4 1 0
BITMAP
F0
90
90
98
ENDCHAR

STARTCHAR o
ENCODING 111
SWIDTH 540 0
DWIDTH 4 0
BBX 4 4 1 0
BITMAP
70
90
90
E0
ENDCHAR

STARTCHAR p
ENCODING 112
SWIDTH 600 0
DWIDTH 5 0
BBX 5 6 0 -2
BITMAP
78
68
48
70
40
C0
ENDCHAR

STARTCHAR q
ENCODING 113
SWIDTH 560 0
DWIDTH 4 0
BBX 4 6 1 -2
BITMAP
70
90
B0
E0
20
30
ENDCHAR

STARTCHAR r
ENCODING 114
SWIDTH 400 0
DWIDTH 3 0
BBX 3 4 1 0
BITMAP
E0
80
80
80
ENDCHAR

STARTCHAR s
ENCODING 115
SWIDTH 540 0
DWIDTH 4 0
BBX 4 4 1 0
BITMAP
60
50
F0
E0
ENDCHAR

STARTCHAR t
ENCODING 116
SWIDTH 340 0
DWIDTH 3 0
BBX 3 6 1 0
BITMAP
40
40
E0
80
80
C0
ENDCHAR

STARTCHAR u
ENCODING 117
SWIDTH 620 0
DWIDTH 5 0
BBX 5 4 1 0
BITMAP
90
90
B0
F8
ENDCHAR

STARTCHAR v
ENCODING 118
SWIDTH 540 0
DWIDTH 4 0
BBX 4 4 1 0
BITMAP
90
90
90
E0
ENDCHAR

STARTCHAR w
ENCODING 119
SWIDTH 880 0
DWIDTH 7 0
BBX 6 4 1 0
BITMAP
94
94
B4
F8
ENDCHAR

STARTCHAR x
ENCODING 120
SWIDTH 540 0
DWIDTH 4 0
BBX 5 4 0 0
BITMAP
78
20
60
D8
ENDCHAR

STARTCHAR y
ENCODING 121
SWIDTH 600 0
DWIDTH 5 0
BBX 4 6 0 -2
BITMAP
D0
90
90
F0
10
E0
ENDCHAR

STARTCHAR z
ENCODING 122
SWIDTH 520 0
DWIDTH 4 0
BBX 4 4 0 0
BITMAP
70
60
50
F0
ENDCHAR

STARTCHAR braceleft
ENCODING 123
SWIDTH 360 0
DWIDTH 3 0
BBX 3 8 1 -2
BITMAP
60
40
80
80
80
80
80
80
ENDCHAR

STARTCHAR bar
ENCODING 124
SWIDTH 600 0
DWIDTH 5 0
BBX 1 6 2 0
BITMAP
80
80
80
80
80
80
ENDCHAR

STARTCHAR braceright
ENCODING 125
SWIDTH 380 0
DWIDTH 3 0
BBX 3 8 0 -2
BITMAP
40
40
40
40
60
40
40
80
ENDCHAR

STARTCHAR asciitilde
ENCODING 126
SWIDTH 600 0
DWIDTH 5 0
BBX 4 2 1 1
BITMAP
D0
B0
ENDCHAR

STARTCHAR exclamdown
ENCODING 161
SWIDTH 320 0
DWIDTH 3 0
BBX 2 6 1 -2
BITMAP
40
00
80
80
80
80
ENDCHAR

STARTCHAR cent
ENCODING 162
SWIDTH 620 0
DWIDTH 5 0
BBX 4 6 1 0
BITMAP
20
60
B0
B0
E0
40
ENDCHAR

STARTCHAR sterling
ENCODING 163
SWIDTH 620 0
DWIDTH 5 0
BBX 6 6 0 0
BITMAP
18
24
20
70
E8
D8
ENDCHAR

STARTCHAR currency
ENCODING 164
SWIDTH 620 0
DWIDTH 5 0
BBX 4 4 1 1
BITMAP
F0
90
90
F0
ENDCHAR

STARTCHAR yen
ENCODING 165
SWIDTH 620 0
DWIDTH 5 0
BBX 5 6 1 0
BITMAP
D8
48
D8
F0
40
60
ENDCHAR

STARTCHAR brokenbar
ENCODING 166
SWIDTH 600 0
DWIDTH 5 0
BBX 1 6 2 0
BITMAP
80
80
00
80
80
80
ENDCHAR

STARTCHAR section
ENCODING 167
SWIDTH 620 0
DWIDTH 5 0
BBX 5 8 0 -2
BITMAP
30
48
60
50
68
30
90
F0
ENDCHAR

STARTCHAR dieresis
ENCODING 168
SWIDTH 420 0
DWIDTH 3 0
BBX 2 1 1 5
BITMAP
C0
ENDCHAR

STARTCHAR copyright
ENCODING 169
SWIDTH 740 0
DWIDTH 6 0
BBX 6 6 0 0
BITMAP
78
DC
A4
AC
DC
78
ENDCHAR

STARTCHAR ordfeminine
ENCODING 170
SWIDTH 440 0
DWIDTH 4 0
BBX 3 4 1 2
BITMAP
60
A0
E0
E0
ENDCHAR

STARTCHAR guillemotleft
ENCODING 171
SWIDTH 300 0
DWIDTH 2 0
BBX 2 2 1 1
BITMAP
C0
C0
ENDCHAR

STARTCHAR logicalnot
ENCODING 172
SWIDTH 600 0
DWIDTH 5 0
BBX 4 3 1 1
BITMAP
F0
10
10
ENDCHAR

STARTCHAR hyphen
ENCODING 173
SWIDTH 320 0
DWIDTH 3 0
BBX 2 1 1 2
BITMAP
C0
ENDCHAR

STARTCHAR registered
ENCODING 174
SWIDTH 740 0
DWIDTH 6 0
BBX 7 6 0 0
BITMAP
38
FE
BA
BA
EE
38
ENDCHAR

STARTCHAR macron
ENCODING 175
SWIDTH 440 0
DWIDTH 4 0
BBX 2 1 1 5
BITMAP
C0
ENDCHAR

STARTCHAR degree
ENCODING 176
SWIDTH 400 0
DWIDTH 3 0
BBX 3 3 1 3
BITMAP
E0
A0
E0
ENDCHAR

STARTCHAR plusminus
ENCODING 177
SWIDTH 600 0
DWIDTH 5 0
BBX 5 4 0 0
BITMAP
20
F8
20
F8
ENDCHAR

STARTCHAR twosuperior
ENCODING 178
SWIDTH 372 0
DWIDTH 3 0
BBX 3 3 -3 3
BITMAP
60
E0
E0
ENDCHAR

STARTCHAR threesuperior
ENCODING 179
SWIDTH 372 0
DWIDTH 3 0
BBX 3 3 -3 3
BITMAP
E0
E0
C0
ENDCHAR

STARTCHAR acute
ENCODING 180
SWIDTH 320 0
DWIDTH 3 0
BBX 2 1 1 5
BITMAP
C0
ENDCHAR

STARTCHAR mu
ENCODING 181
SWIDTH 620 0
DWIDTH 5 0
BBX 5 6 0 -2
BITMAP
D8
50
50
78
80
80
ENDCHAR

STARTCHAR paragraph
ENCODING 182
SWIDTH 620 0
DWIDTH 5 0
BBX 5 6 1 0
BITMAP
78
F0
D0
D0
50
F0
ENDCHAR

STARTCHAR periodcentered
ENCODING 183
SWIDTH 300 0
DWIDTH 4 0
BBX 1 1 2 2
BITMAP
80
ENDCHAR

STARTCHAR cedilla
ENCODING 184
SWIDTH 320 0
DWIDTH 3 0
BBX 2 2 0 -2
BITMAP
C0
80
ENDCHAR

STARTCHAR onesuperior
ENCODING 185
SWIDTH 372 0
DWIDTH 3 0
BBX 2 3 -4 3
BITMAP
40
40
C0
ENDCHAR

STARTCHAR ordmasculine
ENCODING 186
SWIDTH 400 0
DWIDTH 3 0
BBX 3 4 1 2
BITMAP
60
60
40
E0
ENDCHAR

STARTCHAR guillemotright
ENCODING 187
SWIDTH 300 0
DWIDTH 2 0
BBX 2 2 0 1
BITMAP
C0
C0
ENDCHAR

STARTCHAR onequarter
ENCODING 188
SWIDTH 930 0
DWIDTH 6 0
BBX 5 6 -4 0
BITMAP
58
50
E0
58
50
B8
ENDCHAR

STARTCHAR onehalf
ENCODING 189
SWIDTH 930 0
DWIDTH 6 0
BBX 5 6 -4 0
BITMAP
58
50
E0
58
78
B8
ENDCHAR

STARTCHAR threequarters
ENCODING 190
SWIDTH 930 0
DWIDTH 6 0
BBX 6 6 -3 0
BITMAP
EC
E8
D0
2C
28
5C
ENDCHAR

STARTCHAR questiondown
ENCODING 191
SWIDTH 540 0
DWIDTH 4 0
BBX 4 6 0 -2
BITMAP
20
00
60
80
90
E0
ENDCHAR

STARTCHAR Agrave
ENCODING 192
SWIDTH 700 0
DWIDTH 6 0
BBX 6 7 0 0
BITMAP
18
18
38
28
78
48
CC
ENDCHAR

STARTCHAR Aacute
ENCODING 193
SWIDTH 700 0
DWIDTH 6 0
BBX 6 7 0 0
BITMAP
18
18
38
28
78
48
CC
ENDCHAR

STARTCHAR Acircumflex
ENCODING 194
SWIDTH 700 0
DWIDTH 6 0
BBX 6 7 0 0
BITMAP
18
18
38
28
78
48
CC
ENDCHAR

STARTCHAR Atilde
ENCODING 195
SWIDTH 700 0
DWIDTH 6 0
BBX 6 7 0 0
BITMAP
18
18
38
28
78
48
CC
ENDCHAR

STARTCHAR Adieresis
ENCODING 196
SWIDTH 700 0
DWIDTH 6 0
BBX 6 7 0 0
BITMAP
18
18
38
28
78
48
CC
ENDCHAR

STARTCHAR Aring
ENCODING 197
SWIDTH 700 0
DWIDTH 6 0
BBX 6 8 0 0
BITMAP
10
10
18
38
28
78
48
CC
ENDCHAR

STARTCHAR AE
ENCODING 198
SWIDTH 1220 0
DWIDTH 10 0
BBX 11 6 0 0
BITMAP
07C0
0E40
1FA0
3200
4200
E7C0
ENDCHAR

STARTCHAR Ccedilla
ENCODING 199
SWIDTH 720 0
DWIDTH 6 0
BBX 5 8 1 -2
BITMAP
38
48
88
80
88
70
60
40
ENDCHAR

STARTCHAR Egrave
ENCODING 200
SWIDTH 680 0
DWIDTH 5 0
BBX 6 7 0 0
BITMAP
10
7C
24
70
48
48
F8
ENDCHAR

STARTCHAR Eacute
ENCODING 201
SWIDTH 680 0
DWIDTH 5 0
BBX 6 7 0 0
BITMAP
10
7C
24
70
48
48
F8
ENDCHAR

STARTCHAR Ecircumflex
ENCODING 202
SWIDTH 680 0
DWIDTH 5 0
BBX 6 7 0 0
BITMAP
30
7C
24
70
48
48
F8
ENDCHAR

STARTCHAR Edieresis
ENCODING 203
SWIDTH 680 0
DWIDTH 5 0
BBX 6 7 0 0
BITMAP
30
7C
24
70
48
48
F8
ENDCHAR

STARTCHAR Igrave
ENCODING 204
SWIDTH 320 0
DWIDTH 3 0
BBX 3 7 0 0
BITMAP
60
60
40
40
40
40
C0
ENDCHAR

STARTCHAR Iacute
ENCODING 205
SWIDTH 320 0
DWIDTH 3 0
BBX 3 7 0 0
BITMAP
60
60
40
40
40
40
C0
ENDCHAR

STARTCHAR Icircumflex
ENCODING 206
SWIDTH 320 0
DWIDTH 3 0
BBX 3 7 0 0
BITMAP
60
60
40
40
40
40
C0
ENDCHAR

STARTCHAR Idieresis
ENCODING 207
SWIDTH 320 0
DWIDTH 3 0
BBX 3 7 0 0
BITMAP
60
60
40
40
40
40
C0
ENDCHAR

STARTCHAR Eth
ENCODING 208
SWIDTH 740 0
DWIDTH 6 0
BBX 6 6 0 0
BITMAP
78
44
F4
44
4C
F8
ENDCHAR

STARTCHAR Ntilde
ENCODING 209
SWIDTH 720 0
DWIDTH 6 0
BBX 6 7 0 0
BITMAP
30
64
64
54
54
48
C8
ENDCHAR

STARTCHAR Ograve
ENCODING 210
SWIDTH 760 0
DWIDTH 6 0
BBX 6 7 1 0
BITMAP
20
38
44
84
84
88
70
ENDCHAR

STARTCHAR Oacute
ENCODING 211
SWIDTH 760 0
DWIDTH 6 0
BBX 6 7 1 0
BITMAP
20
38
44
84
84
88
70
ENDCHAR

STARTCHAR Ocircumflex
ENCODING 212
SWIDTH 760 0
DWIDTH 6 0
BBX 6 7 1 0
BITMAP
30
38
44
84
84
88
70
ENDCHAR

STARTCHAR Otilde
ENCODING 213
SWIDTH 760 0
DWIDTH 6 0
BBX 6 7 1 0
BITMAP
30
38
44
84
84
88
70
ENDCHAR

STARTCHAR Odieresis
ENCODING 214
SWIDTH 760 0
DWIDTH 6 0
BBX 6 7 1 0
BITMAP
30
38
44
84
84
88
70
ENDCHAR

STARTCHAR multiply
ENCODING 215
SWIDTH 600 0
DWIDTH 5 0
BBX 3 3 1 1
BITMAP
A0
40
A0
ENDCHAR

STARTCHAR Oslash
ENCODING 216
SWIDTH 760 0
DWIDTH 6 0
BBX 7 6 1 0
BITMAP
3E
4C
9C
94
A8
70
ENDCHAR

STARTCHAR Ugrave
ENCODING 217
SWIDTH 720 0
DWIDTH 6 0
BBX 6 7 1 0
BITMAP
30
CC
88
88
88
88
F0
ENDCHAR

STARTCHAR Uacute
ENCODING 218
SWIDTH 720 0
DWIDTH 6 0
BBX 6 7 1 0
BITMAP
30
CC
88
88
88
88
F0
ENDCHAR

STARTCHAR Ucircumflex
ENCODING 219
SWIDTH 720 0
DWIDTH 6 0
BBX 6 7 1 0
BITMAP
30
CC
88
88
88
88
F0
ENDCHAR

STARTCHAR Udieresis
ENCODING 220
SWIDTH 720 0
DWIDTH 6 0
BBX 6 7 1 0
BITMAP
30
CC
88
88
88
88
F0
ENDCHAR

STARTCHAR Yacute
ENCODING 221
SWIDTH 660 0
DWIDTH 5 0
BBX 6 7 1 0
BITMAP
30
CC
48
50
20
20
60
ENDCHAR

STARTCHAR Thorn
ENCODING 222
SWIDTH 600 0
DWIDTH 5 0
BBX 5 6 0 0
BITMAP
60
20
78
48
70
C0
ENDCHAR

STARTCHAR germandbls
ENCODING 223
SWIDTH 620 0
DWIDTH 5 0
BBX 6 8 0 -1
BITMAP
0C
14
2C
2C
24
24
38
C0
ENDCHAR

STARTCHAR agrave
ENCODING 224
SWIDTH 620 0
DWIDTH 5 0
BBX 5 5 1 0
BITMAP
20
70
90
B0
F8
ENDCHAR

STARTCHAR aacute
ENCODING 225
SWIDTH 620 0
DWIDTH 5 0
BBX 5 5 1 0
BITMAP
20
70
90
B0
F8
ENDCHAR

STARTCHAR acircumflex
ENCODING 226
SWIDTH 620 0
DWIDTH 5 0
BBX 5 5 1 0
BITMAP
30
70
90
B0
F8
ENDCHAR

STARTCHAR atilde
ENCODING 227
SWIDTH 620 0
DWIDTH 5 0
BBX 5 5 1 0
BITMAP
30
70
90
B0
F8
ENDCHAR

STARTCHAR adieresis
ENCODING 228
SWIDTH 620 0
DWIDTH 5 0
BBX 5 5 1 0
BITMAP
30
70
90
B0
F8
ENDCHAR

STARTCHAR aring
ENCODING 229
SWIDTH 620 0
DWIDTH 5 0
BBX 5 6 1 0
BITMAP
20
20
70
90
B0
F8
ENDCHAR

STARTCHAR ae
ENCODING 230
SWIDTH 880 0
DWIDTH 7 0
BBX 7 4 1 0
BITMAP
7E
7C
90
FC
ENDCHAR

STARTCHAR ccedilla
ENCODING 231
SWIDTH 480 0
DWIDTH 4 0
BBX 4 6 1 -2
BITMAP
60
90
90
E0
C0
80
ENDCHAR

STARTCHAR egrave
ENCODING 232
SWIDTH 540 0
DWIDTH 4 0
BBX 4 5 1 0
BITMAP
20
70
F0
90
E0
ENDCHAR

STARTCHAR eacute
ENCODING 233
SWIDTH 540 0
DWIDTH 4 0
BBX 4 5 1 0
BITMAP
20
70
F0
90
E0
ENDCHAR

STARTCHAR ecircumflex
ENCODING 234
SWIDTH 540 0
DWIDTH 4 0
BBX 4 5 1 0
BITMAP
60
70
F0
90
E0
ENDCHAR

STARTCHAR edieresis
ENCODING 235
SWIDTH 540 0
DWIDTH 4 0
BBX 4 5 1 0
BITMAP
60
70
F0
90
E0
ENDCHAR

STARTCHAR igrave
ENCODING 236
SWIDTH 280 0
DWIDTH 2 0
BBX 3 5 1 0
BITMAP
60
80
80
80
C0
ENDCHAR

STARTCHAR iacute
ENCODING 237
SWIDTH 280 0
DWIDTH 2 0
BBX 3 5 1 0
BITMAP
60
80
80
80
C0
ENDCHAR

STARTCHAR icircumflex
ENCODING 238
SWIDTH 280 0
DWIDTH 2 0
BBX 2 5 1 0
BITMAP
C0
80
80
80
C0
ENDCHAR

STARTCHAR idieresis
ENCODING 239
SWIDTH 280 0
DWIDTH 2 0
BBX 2 5 1 0
BITMAP
C0
80
80
80
C0
ENDCHAR

STARTCHAR eth
ENCODING 240
SWIDTH 540 0
DWIDTH 4 0
BBX 4 6 1 0
BITMAP
60
50
70
90
90
E0
ENDCHAR

STARTCHAR ntilde
ENCODING 241
SWIDTH 620 0
DWIDTH 5 0
BBX 5 5 1 0
BITMAP
60
F0
90
90
98
ENDCHAR

STARTCHAR ograve
ENCODING 242
SWIDTH 540 0
DWIDTH 4 0
BBX 4 5 1 0
BITMAP
20
70
90
90
E0
ENDCHAR

STARTCHAR oacute
ENCODING 243
SWIDTH 540 0
DWIDTH 4 0
BBX 4 5 1 0
BITMAP
20
70
90
90
E0
ENDCHAR

STARTCHAR ocircumflex
ENCODING 244
SWIDTH 540 0
DWIDTH 4 0
BBX 4 5 1 0
BITMAP
60
70
90
90
E0
ENDCHAR

STARTCHAR otilde
ENCODING 245
SWIDTH 540 0
DWIDTH 4 0
BBX 4 5 1 0
BITMAP
60
70
90
90
E0
ENDCHAR

STARTCHAR odieresis
ENCODING 246
SWIDTH 540 0
DWIDTH 4 0
BBX 4 5 1 0
BITMAP
60
70
90
90
E0
ENDCHAR

STARTCHAR divide
ENCODING 247
SWIDTH 600 0
DWIDTH 5 0
BBX 5 5 0 1
BITMAP
20
00
F8
00
20
ENDCHAR

STARTCHAR oslash
ENCODING 248
SWIDTH 540 0
DWIDTH 4 0
BBX 4 4 1 0
BITMAP
70
B0
D0
E0
ENDCHAR

STARTCHAR ugrave
ENCODING 249
SWIDTH 620 0
DWIDTH 5 0
BBX 5 5 1 0
BITMAP
30
90
90
B0
F8
ENDCHAR

STARTCHAR uacute
ENCODING 250
SWIDTH 620 0
DWIDTH 5 0
BBX 5 5 1 0
BITMAP
30
90
90
B0
F8
ENDCHAR

STARTCHAR ucircumflex
ENCODING 251
SWIDTH 620 0
DWIDTH 5 0
BBX 5 5 1 0
BITMAP
60
90
90
B0
F8
ENDCHAR

STARTCHAR udieresis
ENCODING 252
SWIDTH 620 0
DWIDTH 5 0
BBX 5 5 1 0
BITMAP
30
90
90
B0
F8
ENDCHAR

STARTCHAR yacute
ENCODING 253
SWIDTH 600 0
DWIDTH 5 0
BBX 4 7 0 -2
BITMAP
30
D0
90
90
F0
10
E0
ENDCHAR

STARTCHAR thorn
ENCODING 254
SWIDTH 600 0
DWIDTH 5 0
BBX 5 8 0 -2
BITMAP
60
20
38
68
48
70
40
C0
ENDCHAR

STARTCHAR ydieresis
ENCODING 255
SWIDTH 600 0
DWIDTH 5 0
BBX 4 7 0 -2
BITMAP
30
D0
90
90
F0
10
E0
ENDCHAR
ENDFONT
